<?xml version="1.0" encoding="utf-8" standalone="no"?>
<!DOCTYPE svg PUBLIC "-//W3C//DTD SVG 1.1//EN"
  "http://www.w3.org/Graphics/SVG/1.1/DTD/svg11.dtd">
<svg xmlns:xlink="http://www.w3.org/1999/xlink" width="630.78175pt" height="432.949875pt" viewBox="0 0 630.78175 432.949875" xmlns="http://www.w3.org/2000/svg" version="1.1">
 <metadata>
  <rdf:RDF xmlns:dc="http://purl.org/dc/elements/1.1/" xmlns:cc="http://creativecommons.org/ns#" xmlns:rdf="http://www.w3.org/1999/02/22-rdf-syntax-ns#">
   <cc:Work>
    <dc:type rdf:resource="http://purl.org/dc/dcmitype/StillImage"/>
    <dc:date>2025-03-24T16:21:55.957598</dc:date>
    <dc:format>image/svg+xml</dc:format>
    <dc:creator>
     <cc:Agent>
      <dc:title>Matplotlib v3.9.2, https://matplotlib.org/</dc:title>
     </cc:Agent>
    </dc:creator>
   </cc:Work>
  </rdf:RDF>
 </metadata>
 <defs>
  <style type="text/css">*{stroke-linejoin: round; stroke-linecap: butt}</style>
 </defs>
 <g id="figure_1">
  <g id="patch_1">
   <path d="M 0 432.949875 
L 630.78175 432.949875 
L 630.78175 -0 
L 0 -0 
z
" style="fill: #ffffff"/>
  </g>
  <g id="axes_1">
   <g id="patch_2">
    <path d="M 65.58175 415.953 
L 623.58175 415.953 
L 623.58175 83.313 
L 65.58175 83.313 
z
" style="fill: #ffffff"/>
   </g>
   <g id="matplotlib.axis_1"/>
   <g id="matplotlib.axis_2">
    <g id="ytick_1">
     <g id="line2d_1">
      <defs>
       <path id="md53a4ab361" d="M 0 0 
L -4.8 0 
" style="stroke: #262626"/>
      </defs>
      <g>
       <use xlink:href="#md53a4ab361" x="65.58175" y="415.953" style="fill: #262626; stroke: #262626"/>
      </g>
     </g>
     <g id="text_1">
      <!-- 30 -->
      <g style="fill: #262626" transform="translate(37.70725 422.251875) scale(0.176 -0.176)">
       <defs>
        <path id="ArialMT-33" d="M 269 1209 
L 831 1284 
Q 928 806 1161 595 
Q 1394 384 1728 384 
Q 2125 384 2398 659 
Q 2672 934 2672 1341 
Q 2672 1728 2419 1979 
Q 2166 2231 1775 2231 
Q 1616 2231 1378 2169 
L 1441 2663 
Q 1497 2656 1531 2656 
Q 1891 2656 2178 2843 
Q 2466 3031 2466 3422 
Q 2466 3731 2256 3934 
Q 2047 4138 1716 4138 
Q 1388 4138 1169 3931 
Q 950 3725 888 3313 
L 325 3413 
Q 428 3978 793 4289 
Q 1159 4600 1703 4600 
Q 2078 4600 2393 4439 
Q 2709 4278 2876 4000 
Q 3044 3722 3044 3409 
Q 3044 3113 2884 2869 
Q 2725 2625 2413 2481 
Q 2819 2388 3044 2092 
Q 3269 1797 3269 1353 
Q 3269 753 2831 336 
Q 2394 -81 1725 -81 
Q 1122 -81 723 278 
Q 325 638 269 1209 
z
" transform="scale(0.015625)"/>
        <path id="ArialMT-30" d="M 266 2259 
Q 266 3072 433 3567 
Q 600 4063 929 4331 
Q 1259 4600 1759 4600 
Q 2128 4600 2406 4451 
Q 2684 4303 2865 4023 
Q 3047 3744 3150 3342 
Q 3253 2941 3253 2259 
Q 3253 1453 3087 958 
Q 2922 463 2592 192 
Q 2263 -78 1759 -78 
Q 1097 -78 719 397 
Q 266 969 266 2259 
z
M 844 2259 
Q 844 1131 1108 757 
Q 1372 384 1759 384 
Q 2147 384 2411 759 
Q 2675 1134 2675 2259 
Q 2675 3391 2411 3762 
Q 2147 4134 1753 4134 
Q 1366 4134 1134 3806 
Q 844 3388 844 2259 
z
" transform="scale(0.015625)"/>
       </defs>
       <use xlink:href="#ArialMT-33"/>
       <use xlink:href="#ArialMT-30" x="55.615234"/>
      </g>
     </g>
    </g>
    <g id="ytick_2">
     <g id="line2d_2">
      <g>
       <use xlink:href="#md53a4ab361" x="65.58175" y="332.793" style="fill: #262626; stroke: #262626"/>
      </g>
     </g>
     <g id="text_2">
      <!-- 50 -->
      <g style="fill: #262626" transform="translate(37.70725 339.091875) scale(0.176 -0.176)">
       <defs>
        <path id="ArialMT-35" d="M 266 1200 
L 856 1250 
Q 922 819 1161 601 
Q 1400 384 1738 384 
Q 2144 384 2425 690 
Q 2706 997 2706 1503 
Q 2706 1984 2436 2262 
Q 2166 2541 1728 2541 
Q 1456 2541 1237 2417 
Q 1019 2294 894 2097 
L 366 2166 
L 809 4519 
L 3088 4519 
L 3088 3981 
L 1259 3981 
L 1013 2750 
Q 1425 3038 1878 3038 
Q 2478 3038 2890 2622 
Q 3303 2206 3303 1553 
Q 3303 931 2941 478 
Q 2500 -78 1738 -78 
Q 1113 -78 717 272 
Q 322 622 266 1200 
z
" transform="scale(0.015625)"/>
       </defs>
       <use xlink:href="#ArialMT-35"/>
       <use xlink:href="#ArialMT-30" x="55.615234"/>
      </g>
     </g>
    </g>
    <g id="ytick_3">
     <g id="line2d_3">
      <g>
       <use xlink:href="#md53a4ab361" x="65.58175" y="249.633" style="fill: #262626; stroke: #262626"/>
      </g>
     </g>
     <g id="text_3">
      <!-- 70 -->
      <g style="fill: #262626" transform="translate(37.70725 255.931875) scale(0.176 -0.176)">
       <defs>
        <path id="ArialMT-37" d="M 303 3981 
L 303 4522 
L 3269 4522 
L 3269 4084 
Q 2831 3619 2401 2847 
Q 1972 2075 1738 1259 
Q 1569 684 1522 0 
L 944 0 
Q 953 541 1156 1306 
Q 1359 2072 1739 2783 
Q 2119 3494 2547 3981 
L 303 3981 
z
" transform="scale(0.015625)"/>
       </defs>
       <use xlink:href="#ArialMT-37"/>
       <use xlink:href="#ArialMT-30" x="55.615234"/>
      </g>
     </g>
    </g>
    <g id="ytick_4">
     <g id="line2d_4">
      <g>
       <use xlink:href="#md53a4ab361" x="65.58175" y="166.473" style="fill: #262626; stroke: #262626"/>
      </g>
     </g>
     <g id="text_4">
      <!-- 90 -->
      <g style="fill: #262626" transform="translate(37.70725 172.771875) scale(0.176 -0.176)">
       <defs>
        <path id="ArialMT-39" d="M 350 1059 
L 891 1109 
Q 959 728 1153 556 
Q 1347 384 1650 384 
Q 1909 384 2104 503 
Q 2300 622 2425 820 
Q 2550 1019 2634 1356 
Q 2719 1694 2719 2044 
Q 2719 2081 2716 2156 
Q 2547 1888 2255 1720 
Q 1963 1553 1622 1553 
Q 1053 1553 659 1965 
Q 266 2378 266 3053 
Q 266 3750 677 4175 
Q 1088 4600 1706 4600 
Q 2153 4600 2523 4359 
Q 2894 4119 3086 3673 
Q 3278 3228 3278 2384 
Q 3278 1506 3087 986 
Q 2897 466 2520 194 
Q 2144 -78 1638 -78 
Q 1100 -78 759 220 
Q 419 519 350 1059 
z
M 2653 3081 
Q 2653 3566 2395 3850 
Q 2138 4134 1775 4134 
Q 1400 4134 1122 3828 
Q 844 3522 844 3034 
Q 844 2597 1108 2323 
Q 1372 2050 1759 2050 
Q 2150 2050 2401 2323 
Q 2653 2597 2653 3081 
z
" transform="scale(0.015625)"/>
       </defs>
       <use xlink:href="#ArialMT-39"/>
       <use xlink:href="#ArialMT-30" x="55.615234"/>
      </g>
     </g>
    </g>
    <g id="ytick_5">
     <g id="line2d_5">
      <g>
       <use xlink:href="#md53a4ab361" x="65.58175" y="83.313" style="fill: #262626; stroke: #262626"/>
      </g>
     </g>
     <g id="text_5">
      <!-- 110 -->
      <g style="fill: #262626" transform="translate(29.218 89.611875) scale(0.176 -0.176)">
       <defs>
        <path id="ArialMT-31" d="M 2384 0 
L 1822 0 
L 1822 3584 
Q 1619 3391 1289 3197 
Q 959 3003 697 2906 
L 697 3450 
Q 1169 3672 1522 3987 
Q 1875 4303 2022 4600 
L 2384 4600 
L 2384 0 
z
" transform="scale(0.015625)"/>
       </defs>
       <use xlink:href="#ArialMT-31"/>
       <use xlink:href="#ArialMT-31" x="48.240234"/>
       <use xlink:href="#ArialMT-30" x="103.855469"/>
      </g>
     </g>
    </g>
    <g id="text_6">
     <!-- Signal intensity -->
     <g style="fill: #262626" transform="translate(21.177 314.2005) rotate(-90) scale(0.192 -0.192)">
      <defs>
       <path id="ArialMT-53" d="M 288 1472 
L 859 1522 
Q 900 1178 1048 958 
Q 1197 738 1509 602 
Q 1822 466 2213 466 
Q 2559 466 2825 569 
Q 3091 672 3220 851 
Q 3350 1031 3350 1244 
Q 3350 1459 3225 1620 
Q 3100 1781 2813 1891 
Q 2628 1963 1997 2114 
Q 1366 2266 1113 2400 
Q 784 2572 623 2826 
Q 463 3081 463 3397 
Q 463 3744 659 4045 
Q 856 4347 1234 4503 
Q 1613 4659 2075 4659 
Q 2584 4659 2973 4495 
Q 3363 4331 3572 4012 
Q 3781 3694 3797 3291 
L 3216 3247 
Q 3169 3681 2898 3903 
Q 2628 4125 2100 4125 
Q 1550 4125 1298 3923 
Q 1047 3722 1047 3438 
Q 1047 3191 1225 3031 
Q 1400 2872 2139 2705 
Q 2878 2538 3153 2413 
Q 3553 2228 3743 1945 
Q 3934 1663 3934 1294 
Q 3934 928 3725 604 
Q 3516 281 3123 101 
Q 2731 -78 2241 -78 
Q 1619 -78 1198 103 
Q 778 284 539 648 
Q 300 1013 288 1472 
z
" transform="scale(0.015625)"/>
       <path id="ArialMT-69" d="M 425 3934 
L 425 4581 
L 988 4581 
L 988 3934 
L 425 3934 
z
M 425 0 
L 425 3319 
L 988 3319 
L 988 0 
L 425 0 
z
" transform="scale(0.015625)"/>
       <path id="ArialMT-67" d="M 319 -275 
L 866 -356 
Q 900 -609 1056 -725 
Q 1266 -881 1628 -881 
Q 2019 -881 2231 -725 
Q 2444 -569 2519 -288 
Q 2563 -116 2559 434 
Q 2191 0 1641 0 
Q 956 0 581 494 
Q 206 988 206 1678 
Q 206 2153 378 2554 
Q 550 2956 876 3175 
Q 1203 3394 1644 3394 
Q 2231 3394 2613 2919 
L 2613 3319 
L 3131 3319 
L 3131 450 
Q 3131 -325 2973 -648 
Q 2816 -972 2473 -1159 
Q 2131 -1347 1631 -1347 
Q 1038 -1347 672 -1080 
Q 306 -813 319 -275 
z
M 784 1719 
Q 784 1066 1043 766 
Q 1303 466 1694 466 
Q 2081 466 2343 764 
Q 2606 1063 2606 1700 
Q 2606 2309 2336 2618 
Q 2066 2928 1684 2928 
Q 1309 2928 1046 2623 
Q 784 2319 784 1719 
z
" transform="scale(0.015625)"/>
       <path id="ArialMT-6e" d="M 422 0 
L 422 3319 
L 928 3319 
L 928 2847 
Q 1294 3394 1984 3394 
Q 2284 3394 2536 3286 
Q 2788 3178 2913 3003 
Q 3038 2828 3088 2588 
Q 3119 2431 3119 2041 
L 3119 0 
L 2556 0 
L 2556 2019 
Q 2556 2363 2490 2533 
Q 2425 2703 2258 2804 
Q 2091 2906 1866 2906 
Q 1506 2906 1245 2678 
Q 984 2450 984 1813 
L 984 0 
L 422 0 
z
" transform="scale(0.015625)"/>
       <path id="ArialMT-61" d="M 2588 409 
Q 2275 144 1986 34 
Q 1697 -75 1366 -75 
Q 819 -75 525 192 
Q 231 459 231 875 
Q 231 1119 342 1320 
Q 453 1522 633 1644 
Q 813 1766 1038 1828 
Q 1203 1872 1538 1913 
Q 2219 1994 2541 2106 
Q 2544 2222 2544 2253 
Q 2544 2597 2384 2738 
Q 2169 2928 1744 2928 
Q 1347 2928 1158 2789 
Q 969 2650 878 2297 
L 328 2372 
Q 403 2725 575 2942 
Q 747 3159 1072 3276 
Q 1397 3394 1825 3394 
Q 2250 3394 2515 3294 
Q 2781 3194 2906 3042 
Q 3031 2891 3081 2659 
Q 3109 2516 3109 2141 
L 3109 1391 
Q 3109 606 3145 398 
Q 3181 191 3288 0 
L 2700 0 
Q 2613 175 2588 409 
z
M 2541 1666 
Q 2234 1541 1622 1453 
Q 1275 1403 1131 1340 
Q 988 1278 909 1158 
Q 831 1038 831 891 
Q 831 666 1001 516 
Q 1172 366 1500 366 
Q 1825 366 2078 508 
Q 2331 650 2450 897 
Q 2541 1088 2541 1459 
L 2541 1666 
z
" transform="scale(0.015625)"/>
       <path id="ArialMT-6c" d="M 409 0 
L 409 4581 
L 972 4581 
L 972 0 
L 409 0 
z
" transform="scale(0.015625)"/>
       <path id="ArialMT-20" transform="scale(0.015625)"/>
       <path id="ArialMT-74" d="M 1650 503 
L 1731 6 
Q 1494 -44 1306 -44 
Q 1000 -44 831 53 
Q 663 150 594 308 
Q 525 466 525 972 
L 525 2881 
L 113 2881 
L 113 3319 
L 525 3319 
L 525 4141 
L 1084 4478 
L 1084 3319 
L 1650 3319 
L 1650 2881 
L 1084 2881 
L 1084 941 
Q 1084 700 1114 631 
Q 1144 563 1211 522 
Q 1278 481 1403 481 
Q 1497 481 1650 503 
z
" transform="scale(0.015625)"/>
       <path id="ArialMT-65" d="M 2694 1069 
L 3275 997 
Q 3138 488 2766 206 
Q 2394 -75 1816 -75 
Q 1088 -75 661 373 
Q 234 822 234 1631 
Q 234 2469 665 2931 
Q 1097 3394 1784 3394 
Q 2450 3394 2872 2941 
Q 3294 2488 3294 1666 
Q 3294 1616 3291 1516 
L 816 1516 
Q 847 969 1125 678 
Q 1403 388 1819 388 
Q 2128 388 2347 550 
Q 2566 713 2694 1069 
z
M 847 1978 
L 2700 1978 
Q 2663 2397 2488 2606 
Q 2219 2931 1791 2931 
Q 1403 2931 1139 2672 
Q 875 2413 847 1978 
z
" transform="scale(0.015625)"/>
       <path id="ArialMT-73" d="M 197 991 
L 753 1078 
Q 800 744 1014 566 
Q 1228 388 1613 388 
Q 2000 388 2187 545 
Q 2375 703 2375 916 
Q 2375 1106 2209 1216 
Q 2094 1291 1634 1406 
Q 1016 1563 777 1677 
Q 538 1791 414 1992 
Q 291 2194 291 2438 
Q 291 2659 392 2848 
Q 494 3038 669 3163 
Q 800 3259 1026 3326 
Q 1253 3394 1513 3394 
Q 1903 3394 2198 3281 
Q 2494 3169 2634 2976 
Q 2775 2784 2828 2463 
L 2278 2388 
Q 2241 2644 2061 2787 
Q 1881 2931 1553 2931 
Q 1166 2931 1000 2803 
Q 834 2675 834 2503 
Q 834 2394 903 2306 
Q 972 2216 1119 2156 
Q 1203 2125 1616 2013 
Q 2213 1853 2448 1751 
Q 2684 1650 2818 1456 
Q 2953 1263 2953 975 
Q 2953 694 2789 445 
Q 2625 197 2315 61 
Q 2006 -75 1616 -75 
Q 969 -75 630 194 
Q 291 463 197 991 
z
" transform="scale(0.015625)"/>
       <path id="ArialMT-79" d="M 397 -1278 
L 334 -750 
Q 519 -800 656 -800 
Q 844 -800 956 -737 
Q 1069 -675 1141 -563 
Q 1194 -478 1313 -144 
Q 1328 -97 1363 -6 
L 103 3319 
L 709 3319 
L 1400 1397 
Q 1534 1031 1641 628 
Q 1738 1016 1872 1384 
L 2581 3319 
L 3144 3319 
L 1881 -56 
Q 1678 -603 1566 -809 
Q 1416 -1088 1222 -1217 
Q 1028 -1347 759 -1347 
Q 597 -1347 397 -1278 
z
" transform="scale(0.015625)"/>
      </defs>
      <use xlink:href="#ArialMT-53"/>
      <use xlink:href="#ArialMT-69" x="66.699219"/>
      <use xlink:href="#ArialMT-67" x="88.916016"/>
      <use xlink:href="#ArialMT-6e" x="144.53125"/>
      <use xlink:href="#ArialMT-61" x="200.146484"/>
      <use xlink:href="#ArialMT-6c" x="255.761719"/>
      <use xlink:href="#ArialMT-20" x="277.978516"/>
      <use xlink:href="#ArialMT-69" x="305.761719"/>
      <use xlink:href="#ArialMT-6e" x="327.978516"/>
      <use xlink:href="#ArialMT-74" x="383.59375"/>
      <use xlink:href="#ArialMT-65" x="411.376953"/>
      <use xlink:href="#ArialMT-6e" x="466.992188"/>
      <use xlink:href="#ArialMT-73" x="522.607422"/>
      <use xlink:href="#ArialMT-69" x="572.607422"/>
      <use xlink:href="#ArialMT-74" x="594.824219"/>
      <use xlink:href="#ArialMT-79" x="622.607422"/>
     </g>
    </g>
   </g>
   <g id="PolyCollection_1">
    <defs>
     <path id="m215d351743" d="M 90.945386 -342.493965 
L 90.945386 -194.729118 
L 98.749582 -181.7629 
L 106.553778 -188.802376 
L 114.357974 -175.116769 
L 122.16217 -171.64964 
L 129.966365 -173.249129 
L 137.770561 -102.979419 
L 145.574757 -130.293567 
L 153.378953 -128.858087 
L 161.183149 -187.07542 
L 168.987344 -200.184996 
L 176.79154 -198.040302 
L 184.595736 -66.512505 
L 192.399932 -71.985916 
L 200.204128 -78.218652 
L 208.008323 -81.918883 
L 215.812519 -93.389131 
L 223.616715 -94.653223 
L 231.420911 -83.273486 
L 239.225107 -80.123144 
L 247.029302 -89.123524 
L 254.833498 -87.998072 
L 262.637694 -77.245789 
L 270.44189 -71.54379 
L 278.246086 -113.375253 
L 286.050281 -113.446082 
L 293.854477 -105.683624 
L 301.658673 -114.166576 
L 309.462869 -99.312619 
L 317.267065 -94.002043 
L 325.07126 -121.152677 
L 332.875456 -119.806898 
L 340.679652 -119.238836 
L 348.483848 -115.073827 
L 356.288044 -111.283006 
L 364.09224 -111.522745 
L 371.896435 -136.678306 
L 379.700631 -138.78212 
L 387.504827 -135.761829 
L 395.309023 -130.66129 
L 403.113219 -123.181399 
L 410.917414 -121.008366 
L 418.72161 -136.200873 
L 426.525806 -134.526332 
L 434.330002 -145.572009 
L 442.134198 -142.487865 
L 449.938393 -142.469877 
L 457.742589 -147.012935 
L 465.546785 -139.528865 
L 473.350981 -130.273685 
L 481.155177 -128.870397 
L 488.959372 -131.119822 
L 496.763568 -130.611074 
L 504.567764 -134.080903 
L 512.37196 -184.492565 
L 520.176156 -171.915277 
L 527.980351 -170.136316 
L 535.784547 -163.082485 
L 543.588743 -154.556488 
L 551.392939 -147.291949 
L 559.197135 -247.951605 
L 567.00133 -228.427855 
L 574.805526 -213.913913 
L 582.609722 -212.878022 
L 590.413918 -200.259488 
L 598.218114 -194.503647 
L 598.218114 -254.863436 
L 598.218114 -254.863436 
L 590.413918 -264.285675 
L 582.609722 -280.393785 
L 574.805526 -281.033985 
L 567.00133 -288.681921 
L 559.197135 -292.297776 
L 551.392939 -204.628076 
L 543.588743 -219.525411 
L 535.784547 -221.381968 
L 527.980351 -236.955596 
L 520.176156 -243.464065 
L 512.37196 -247.182259 
L 504.567764 -188.041649 
L 496.763568 -191.558036 
L 488.959372 -193.423766 
L 481.155177 -197.86145 
L 473.350981 -198.692968 
L 465.546785 -198.656396 
L 457.742589 -216.31394 
L 449.938393 -214.897489 
L 442.134198 -207.662937 
L 434.330002 -213.192131 
L 426.525806 -196.349225 
L 418.72161 -192.160518 
L 410.917414 -202.278145 
L 403.113219 -213.839885 
L 395.309023 -221.212171 
L 387.504827 -224.911208 
L 379.700631 -225.848395 
L 371.896435 -222.597972 
L 364.09224 -193.466258 
L 356.288044 -194.683731 
L 348.483848 -197.923242 
L 340.679652 -202.092215 
L 332.875456 -206.505924 
L 325.07126 -204.648004 
L 317.267065 -209.497087 
L 309.462869 -211.123733 
L 301.658673 -214.567281 
L 293.854477 -218.859977 
L 286.050281 -194.103636 
L 278.246086 -195.198759 
L 270.44189 -192.520243 
L 262.637694 -193.941704 
L 254.833498 -194.689382 
L 247.029302 -193.610493 
L 239.225107 -201.307239 
L 231.420911 -211.286401 
L 223.616715 -284.317323 
L 215.812519 -292.378965 
L 208.008323 -272.00316 
L 200.204128 -253.262169 
L 192.399932 -210.887768 
L 184.595736 -202.952326 
L 176.79154 -348.447911 
L 168.987344 -340.576519 
L 161.183149 -337.530285 
L 153.378953 -325.164843 
L 145.574757 -323.21722 
L 137.770561 -296.430338 
L 129.966365 -320.767597 
L 122.16217 -327.628218 
L 114.357974 -330.865518 
L 106.553778 -343.252694 
L 98.749582 -338.792197 
L 90.945386 -342.493965 
z
" style="stroke: #008080; stroke-opacity: 0.2; stroke-width: 0.8"/>
    </defs>
    <g clip-path="url(#p316f9f5f7d)">
     <use xlink:href="#m215d351743" x="0" y="432.949875" style="fill: #008080; fill-opacity: 0.2; stroke: #008080; stroke-opacity: 0.2; stroke-width: 0.8"/>
    </g>
   </g>
   <g id="PolyCollection_2">
    <defs>
     <path id="m3ee73cfbef" d="M 90.945386 -341.480252 
L 90.945386 -269.57521 
L 98.749582 -283.240502 
L 106.553778 -283.117965 
L 114.357974 -274.912475 
L 122.16217 -224.455835 
L 129.966365 -257.512872 
L 137.770561 -123.88378 
L 145.574757 -138.298178 
L 153.378953 -171.806831 
L 161.183149 -205.544933 
L 168.987344 -229.807278 
L 176.79154 -255.882652 
L 184.595736 -115.167022 
L 192.399932 -83.775917 
L 200.204128 -88.451796 
L 208.008323 -80.978791 
L 215.812519 -77.604198 
L 223.616715 -85.319505 
L 231.420911 -141.649683 
L 239.225107 -130.325365 
L 247.029302 -125.875949 
L 254.833498 -122.794412 
L 262.637694 -120.615124 
L 270.44189 -115.704664 
L 278.246086 -178.289838 
L 286.050281 -165.768195 
L 293.854477 -160.298381 
L 301.658673 -158.776344 
L 309.462869 -151.339734 
L 317.267065 -154.879458 
L 325.07126 -245.701147 
L 332.875456 -238.182694 
L 340.679652 -228.813492 
L 348.483848 -221.619126 
L 356.288044 -203.223912 
L 364.09224 -196.857918 
L 371.896435 -251.336422 
L 379.700631 -257.5453 
L 387.504827 -253.732128 
L 395.309023 -255.269873 
L 403.113219 -259.839443 
L 410.917414 -256.100711 
L 418.72161 -143.655476 
L 426.525806 -180.336726 
L 434.330002 -196.260598 
L 442.134198 -200.00665 
L 449.938393 -203.876033 
L 457.742589 -239.633975 
L 465.546785 -128.390881 
L 473.350981 -128.293809 
L 481.155177 -128.507335 
L 488.959372 -132.753835 
L 496.763568 -118.636557 
L 504.567764 -136.137458 
L 512.37196 -170.646903 
L 520.176156 -169.533067 
L 527.980351 -157.258596 
L 535.784547 -144.413912 
L 543.588743 -145.18083 
L 551.392939 -134.761405 
L 559.197135 -265.785683 
L 567.00133 -239.133822 
L 574.805526 -227.155908 
L 582.609722 -210.900968 
L 590.413918 -198.356006 
L 598.218114 -199.399682 
L 598.218114 -250.236453 
L 598.218114 -250.236453 
L 590.413918 -284.852021 
L 582.609722 -278.664114 
L 574.805526 -283.973305 
L 567.00133 -306.689119 
L 559.197135 -295.659823 
L 551.392939 -178.094193 
L 543.588743 -183.338878 
L 535.784547 -199.437521 
L 527.980351 -213.101329 
L 520.176156 -230.825507 
L 512.37196 -241.05465 
L 504.567764 -242.5739 
L 496.763568 -209.301462 
L 488.959372 -164.811593 
L 481.155177 -156.884132 
L 473.350981 -158.925823 
L 465.546785 -168.468206 
L 457.742589 -300.912192 
L 449.938393 -307.128528 
L 442.134198 -299.239437 
L 434.330002 -300.866473 
L 426.525806 -289.658605 
L 418.72161 -265.38693 
L 410.917414 -311.037048 
L 403.113219 -312.782831 
L 395.309023 -308.543955 
L 387.504827 -309.666199 
L 379.700631 -307.39034 
L 371.896435 -306.660475 
L 364.09224 -275.588817 
L 356.288044 -285.634837 
L 348.483848 -295.243894 
L 340.679652 -298.935469 
L 332.875456 -300.909233 
L 325.07126 -309.927447 
L 317.267065 -200.647342 
L 309.462869 -217.192025 
L 301.658673 -219.104023 
L 293.854477 -231.916512 
L 286.050281 -244.437579 
L 278.246086 -264.324458 
L 270.44189 -159.922689 
L 262.637694 -167.643236 
L 254.833498 -171.987201 
L 247.029302 -184.528225 
L 239.225107 -186.726721 
L 231.420911 -188.074963 
L 223.616715 -240.416404 
L 215.812519 -225.985889 
L 208.008323 -224.938062 
L 200.204128 -210.193911 
L 192.399932 -193.596508 
L 184.595736 -150.696231 
L 176.79154 -361.239013 
L 168.987344 -358.645304 
L 161.183149 -358.767473 
L 153.378953 -339.114619 
L 145.574757 -327.168271 
L 137.770561 -290.019895 
L 129.966365 -310.248136 
L 122.16217 -337.363611 
L 114.357974 -322.307039 
L 106.553778 -334.128342 
L 98.749582 -334.6706 
L 90.945386 -341.480252 
z
" style="stroke: #ff7f50; stroke-opacity: 0.2; stroke-width: 0.8"/>
    </defs>
    <g clip-path="url(#p316f9f5f7d)">
     <use xlink:href="#m3ee73cfbef" x="0" y="432.949875" style="fill: #ff7f50; fill-opacity: 0.2; stroke: #ff7f50; stroke-opacity: 0.2; stroke-width: 0.8"/>
    </g>
   </g>
   <g id="line2d_6">
    <path d="M 90.945386 164.338333 
L 98.749582 172.672327 
L 106.553778 166.92234 
L 114.357974 179.958732 
L 122.16217 183.310946 
L 129.966365 185.941512 
L 137.770561 233.244997 
L 145.574757 206.194481 
L 153.378953 205.93841 
L 161.183149 170.647022 
L 168.987344 162.569117 
L 176.79154 159.705769 
L 184.595736 298.217459 
L 192.399932 291.513033 
L 200.204128 267.209464 
L 208.008323 255.988853 
L 215.812519 240.065827 
L 223.616715 243.464602 
L 231.420911 285.669932 
L 239.225107 292.234683 
L 247.029302 291.582866 
L 254.833498 291.606148 
L 262.637694 297.356128 
L 270.44189 300.917858 
L 278.246086 278.662869 
L 286.050281 279.175016 
L 293.854477 270.678074 
L 301.658673 268.582946 
L 309.462869 277.731699 
L 317.267065 281.20031 
L 325.07126 270.049534 
L 332.875456 269.793464 
L 340.679652 272.284349 
L 348.483848 276.451341 
L 356.288044 279.966506 
L 364.09224 280.455373 
L 371.896435 253.311736 
L 379.700631 250.634617 
L 387.504827 252.613357 
L 395.309023 257.013144 
L 403.113219 264.439233 
L 410.917414 271.306619 
L 418.72161 268.769179 
L 426.525806 267.512097 
L 434.330002 253.567805 
L 442.134198 257.874474 
L 449.938393 254.266192 
L 457.742589 251.286438 
L 465.546785 263.857245 
L 473.350981 268.466548 
L 481.155177 269.583951 
L 488.959372 270.678081 
L 496.763568 271.86532 
L 504.567764 271.888599 
L 512.37196 217.112463 
L 520.176156 225.260204 
L 527.980351 229.403919 
L 535.784547 240.717648 
L 543.588743 245.908925 
L 551.392939 256.989863 
L 559.197135 162.825184 
L 567.00133 174.394987 
L 574.805526 185.475926 
L 582.609722 186.313972 
L 590.413918 200.677294 
L 598.218114 208.266333 
" clip-path="url(#p316f9f5f7d)" style="fill: none; stroke: #008080; stroke-opacity: 0.7; stroke-width: 2; stroke-linecap: round"/>
   </g>
   <g id="line2d_7">
    <path d="M 90.945386 127.422144 
L 98.749582 123.994324 
L 106.553778 124.326722 
L 114.357974 134.340118 
L 122.16217 152.040152 
L 129.966365 149.069371 
L 137.770561 225.998037 
L 145.574757 200.21665 
L 153.378953 177.48915 
L 161.183149 150.793672 
L 168.987344 138.723584 
L 176.79154 124.389042 
L 184.595736 300.018248 
L 192.399932 294.263662 
L 200.204128 283.627021 
L 208.008323 279.991448 
L 215.812519 281.154831 
L 223.616715 270.081921 
L 231.420911 268.087552 
L 239.225107 274.423832 
L 247.029302 277.747788 
L 254.833498 285.559068 
L 262.637694 288.820695 
L 270.44189 295.136198 
L 278.246086 211.642727 
L 286.050281 227.846988 
L 293.854477 236.842428 
L 301.658673 244.009691 
L 309.462869 248.683996 
L 317.267065 255.186475 
L 325.07126 155.135578 
L 332.875456 163.403911 
L 340.679652 169.075394 
L 348.483848 174.518365 
L 356.288044 188.520501 
L 364.09224 196.726508 
L 371.896435 153.951427 
L 379.700631 150.482055 
L 387.504827 151.250711 
L 395.309023 151.042961 
L 403.113219 146.638738 
L 410.917414 149.380996 
L 418.72161 228.428672 
L 426.525806 197.95221 
L 434.330002 184.38634 
L 442.134198 183.326832 
L 449.938393 177.447595 
L 457.742589 162.676792 
L 465.546785 284.520331 
L 473.350981 289.340059 
L 481.155177 290.254142 
L 488.959372 284.167161 
L 496.763568 268.980866 
L 504.567764 243.594196 
L 512.37196 227.099099 
L 520.176156 232.770588 
L 527.980351 247.769912 
L 535.784547 261.024159 
L 543.588743 268.690021 
L 551.392939 276.522076 
L 559.197135 152.227122 
L 567.00133 160.038405 
L 574.805526 177.385268 
L 582.609722 188.167334 
L 590.413918 191.345861 
L 598.218114 208.131807 
" clip-path="url(#p316f9f5f7d)" style="fill: none; stroke: #ff7f50; stroke-opacity: 0.7; stroke-width: 2; stroke-linecap: round"/>
   </g>
   <g id="line2d_8"/>
   <g id="line2d_9"/>
   <g id="LineCollection_1">
    <path d="M 137.770561 433.949875 
L 137.770561 -1 
" clip-path="url(#p316f9f5f7d)" style="fill: none; stroke-dasharray: 1.85,0.8; stroke-dashoffset: 0; stroke: #808080; stroke-width: 0.5"/>
    <path d="M 184.595736 433.949875 
L 184.595736 -1 
" clip-path="url(#p316f9f5f7d)" style="fill: none; stroke-dasharray: 1.85,0.8; stroke-dashoffset: 0; stroke: #808080; stroke-width: 0.5"/>
    <path d="M 231.420911 433.949875 
L 231.420911 -1 
" clip-path="url(#p316f9f5f7d)" style="fill: none; stroke-dasharray: 1.85,0.8; stroke-dashoffset: 0; stroke: #808080; stroke-width: 0.5"/>
    <path d="M 278.246086 433.949875 
L 278.246086 -1 
" clip-path="url(#p316f9f5f7d)" style="fill: none; stroke-dasharray: 1.85,0.8; stroke-dashoffset: 0; stroke: #808080; stroke-width: 0.5"/>
    <path d="M 325.07126 433.949875 
L 325.07126 -1 
" clip-path="url(#p316f9f5f7d)" style="fill: none; stroke-dasharray: 1.85,0.8; stroke-dashoffset: 0; stroke: #808080; stroke-width: 0.5"/>
    <path d="M 371.896435 433.949875 
L 371.896435 -1 
" clip-path="url(#p316f9f5f7d)" style="fill: none; stroke-dasharray: 1.85,0.8; stroke-dashoffset: 0; stroke: #808080; stroke-width: 0.5"/>
    <path d="M 418.72161 433.949875 
L 418.72161 -1 
" clip-path="url(#p316f9f5f7d)" style="fill: none; stroke-dasharray: 1.85,0.8; stroke-dashoffset: 0; stroke: #808080; stroke-width: 0.5"/>
    <path d="M 465.546785 433.949875 
L 465.546785 -1 
" clip-path="url(#p316f9f5f7d)" style="fill: none; stroke-dasharray: 1.85,0.8; stroke-dashoffset: 0; stroke: #808080; stroke-width: 0.5"/>
    <path d="M 512.37196 433.949875 
L 512.37196 -1 
" clip-path="url(#p316f9f5f7d)" style="fill: none; stroke-dasharray: 1.85,0.8; stroke-dashoffset: 0; stroke: #808080; stroke-width: 0.5"/>
    <path d="M 559.197135 433.949875 
L 559.197135 -1 
" clip-path="url(#p316f9f5f7d)" style="fill: none; stroke-dasharray: 1.85,0.8; stroke-dashoffset: 0; stroke: #808080; stroke-width: 0.5"/>
   </g>
   <g id="patch_3">
    <path d="M 65.58175 415.953 
L 65.58175 83.313 
" style="fill: none; stroke: #262626; stroke-linejoin: miter; stroke-linecap: square"/>
   </g>
   <g id="patch_4">
    <path d="M 65.58175 415.953 
L 623.58175 415.953 
" style="fill: none; stroke: #262626; stroke-linejoin: miter; stroke-linecap: square"/>
   </g>
   <g id="text_7">
    <!-- G -->
    <g style="fill: #262626" transform="translate(98.749582 20.943) scale(0.192 -0.192)">
     <defs>
      <path id="ArialMT-47" d="M 2638 1797 
L 2638 2334 
L 4578 2338 
L 4578 638 
Q 4131 281 3656 101 
Q 3181 -78 2681 -78 
Q 2006 -78 1454 211 
Q 903 500 622 1047 
Q 341 1594 341 2269 
Q 341 2938 620 3517 
Q 900 4097 1425 4378 
Q 1950 4659 2634 4659 
Q 3131 4659 3532 4498 
Q 3934 4338 4162 4050 
Q 4391 3763 4509 3300 
L 3963 3150 
Q 3859 3500 3706 3700 
Q 3553 3900 3268 4020 
Q 2984 4141 2638 4141 
Q 2222 4141 1919 4014 
Q 1616 3888 1430 3681 
Q 1244 3475 1141 3228 
Q 966 2803 966 2306 
Q 966 1694 1177 1281 
Q 1388 869 1791 669 
Q 2194 469 2647 469 
Q 3041 469 3416 620 
Q 3791 772 3984 944 
L 3984 1797 
L 2638 1797 
z
" transform="scale(0.015625)"/>
     </defs>
     <use xlink:href="#ArialMT-47"/>
    </g>
   </g>
   <g id="text_8">
    <!-- T -->
    <g style="fill: #262626" transform="translate(145.574757 20.943) scale(0.192 -0.192)">
     <defs>
      <path id="ArialMT-54" d="M 1659 0 
L 1659 4041 
L 150 4041 
L 150 4581 
L 3781 4581 
L 3781 4041 
L 2266 4041 
L 2266 0 
L 1659 0 
z
" transform="scale(0.015625)"/>
     </defs>
     <use xlink:href="#ArialMT-54"/>
    </g>
   </g>
   <g id="text_9">
    <!-- T -->
    <g style="fill: #262626" transform="translate(192.399932 20.943) scale(0.192 -0.192)">
     <use xlink:href="#ArialMT-54"/>
    </g>
   </g>
   <g id="text_10">
    <!-- C -->
    <g style="fill: #262626" transform="translate(239.225107 20.943) scale(0.192 -0.192)">
     <defs>
      <path id="ArialMT-43" d="M 3763 1606 
L 4369 1453 
Q 4178 706 3683 314 
Q 3188 -78 2472 -78 
Q 1731 -78 1267 223 
Q 803 525 561 1097 
Q 319 1669 319 2325 
Q 319 3041 592 3573 
Q 866 4106 1370 4382 
Q 1875 4659 2481 4659 
Q 3169 4659 3637 4309 
Q 4106 3959 4291 3325 
L 3694 3184 
Q 3534 3684 3231 3912 
Q 2928 4141 2469 4141 
Q 1941 4141 1586 3887 
Q 1231 3634 1087 3207 
Q 944 2781 944 2328 
Q 944 1744 1114 1308 
Q 1284 872 1643 656 
Q 2003 441 2422 441 
Q 2931 441 3284 734 
Q 3638 1028 3763 1606 
z
" transform="scale(0.015625)"/>
     </defs>
     <use xlink:href="#ArialMT-43"/>
    </g>
   </g>
   <g id="text_11">
    <!-- A -->
    <g style="fill: #262626" transform="translate(286.050281 20.943) scale(0.192 -0.192)">
     <defs>
      <path id="ArialMT-41" d="M -9 0 
L 1750 4581 
L 2403 4581 
L 4278 0 
L 3588 0 
L 3053 1388 
L 1138 1388 
L 634 0 
L -9 0 
z
M 1313 1881 
L 2866 1881 
L 2388 3150 
Q 2169 3728 2063 4100 
Q 1975 3659 1816 3225 
L 1313 1881 
z
" transform="scale(0.015625)"/>
     </defs>
     <use xlink:href="#ArialMT-41"/>
    </g>
   </g>
   <g id="text_12">
    <!-- A -->
    <g style="fill: #262626" transform="translate(332.875456 20.943) scale(0.192 -0.192)">
     <use xlink:href="#ArialMT-41"/>
    </g>
   </g>
   <g id="text_13">
    <!-- A -->
    <g style="fill: #262626" transform="translate(379.700631 20.943) scale(0.192 -0.192)">
     <use xlink:href="#ArialMT-41"/>
    </g>
   </g>
   <g id="text_14">
    <!-- T -->
    <g style="fill: #262626" transform="translate(426.525806 20.943) scale(0.192 -0.192)">
     <use xlink:href="#ArialMT-54"/>
    </g>
   </g>
   <g id="text_15">
    <!-- C -->
    <g style="fill: #262626" transform="translate(473.350981 20.943) scale(0.192 -0.192)">
     <use xlink:href="#ArialMT-43"/>
    </g>
   </g>
   <g id="text_16">
    <!-- C -->
    <g style="fill: #262626" transform="translate(520.176156 20.943) scale(0.192 -0.192)">
     <use xlink:href="#ArialMT-43"/>
    </g>
   </g>
   <g id="text_17">
    <!-- G -->
    <g style="fill: #262626" transform="translate(567.00133 20.943) scale(0.192 -0.192)">
     <use xlink:href="#ArialMT-47"/>
    </g>
   </g>
   <g id="legend_1">
    <g id="patch_5">
     <path d="M 502.11975 407.153 
L 611.26175 407.153 
Q 614.78175 407.153 614.78175 403.633 
L 614.78175 355.6015 
Q 614.78175 352.0815 611.26175 352.0815 
L 502.11975 352.0815 
Q 498.59975 352.0815 498.59975 355.6015 
L 498.59975 403.633 
Q 498.59975 407.153 502.11975 407.153 
z
" style="fill: #ffffff; opacity: 0.8; stroke: #cccccc; stroke-width: 0.8; stroke-linejoin: miter"/>
    </g>
    <g id="line2d_10">
     <path d="M 505.63975 365.55925 
L 523.23975 365.55925 
L 540.83975 365.55925 
" style="fill: none; stroke: #008080; stroke-opacity: 0.7; stroke-width: 2; stroke-linecap: round"/>
    </g>
    <g id="text_18">
     <!-- FH028 -->
     <g style="fill: #262626" transform="translate(554.91975 371.71925) scale(0.176 -0.176)">
      <defs>
       <path id="ArialMT-46" d="M 525 0 
L 525 4581 
L 3616 4581 
L 3616 4041 
L 1131 4041 
L 1131 2622 
L 3281 2622 
L 3281 2081 
L 1131 2081 
L 1131 0 
L 525 0 
z
" transform="scale(0.015625)"/>
       <path id="ArialMT-48" d="M 513 0 
L 513 4581 
L 1119 4581 
L 1119 2700 
L 3500 2700 
L 3500 4581 
L 4106 4581 
L 4106 0 
L 3500 0 
L 3500 2159 
L 1119 2159 
L 1119 0 
L 513 0 
z
" transform="scale(0.015625)"/>
       <path id="ArialMT-32" d="M 3222 541 
L 3222 0 
L 194 0 
Q 188 203 259 391 
Q 375 700 629 1000 
Q 884 1300 1366 1694 
Q 2113 2306 2375 2664 
Q 2638 3022 2638 3341 
Q 2638 3675 2398 3904 
Q 2159 4134 1775 4134 
Q 1369 4134 1125 3890 
Q 881 3647 878 3216 
L 300 3275 
Q 359 3922 746 4261 
Q 1134 4600 1788 4600 
Q 2447 4600 2831 4234 
Q 3216 3869 3216 3328 
Q 3216 3053 3103 2787 
Q 2991 2522 2730 2228 
Q 2469 1934 1863 1422 
Q 1356 997 1212 845 
Q 1069 694 975 541 
L 3222 541 
z
" transform="scale(0.015625)"/>
       <path id="ArialMT-38" d="M 1131 2484 
Q 781 2613 612 2850 
Q 444 3088 444 3419 
Q 444 3919 803 4259 
Q 1163 4600 1759 4600 
Q 2359 4600 2725 4251 
Q 3091 3903 3091 3403 
Q 3091 3084 2923 2848 
Q 2756 2613 2416 2484 
Q 2838 2347 3058 2040 
Q 3278 1734 3278 1309 
Q 3278 722 2862 322 
Q 2447 -78 1769 -78 
Q 1091 -78 675 323 
Q 259 725 259 1325 
Q 259 1772 486 2073 
Q 713 2375 1131 2484 
z
M 1019 3438 
Q 1019 3113 1228 2906 
Q 1438 2700 1772 2700 
Q 2097 2700 2305 2904 
Q 2513 3109 2513 3406 
Q 2513 3716 2298 3927 
Q 2084 4138 1766 4138 
Q 1444 4138 1231 3931 
Q 1019 3725 1019 3438 
z
M 838 1322 
Q 838 1081 952 856 
Q 1066 631 1291 507 
Q 1516 384 1775 384 
Q 2178 384 2440 643 
Q 2703 903 2703 1303 
Q 2703 1709 2433 1975 
Q 2163 2241 1756 2241 
Q 1359 2241 1098 1978 
Q 838 1716 838 1322 
z
" transform="scale(0.015625)"/>
      </defs>
      <use xlink:href="#ArialMT-46"/>
      <use xlink:href="#ArialMT-48" x="61.083984"/>
      <use xlink:href="#ArialMT-30" x="133.300781"/>
      <use xlink:href="#ArialMT-32" x="188.916016"/>
      <use xlink:href="#ArialMT-38" x="244.53125"/>
     </g>
    </g>
    <g id="line2d_11">
     <path d="M 505.63975 390.455 
L 523.23975 390.455 
L 540.83975 390.455 
" style="fill: none; stroke: #ff7f50; stroke-opacity: 0.7; stroke-width: 2; stroke-linecap: round"/>
    </g>
    <g id="text_19">
     <!-- FH017 -->
     <g style="fill: #262626" transform="translate(554.91975 396.615) scale(0.176 -0.176)">
      <use xlink:href="#ArialMT-46"/>
      <use xlink:href="#ArialMT-48" x="61.083984"/>
      <use xlink:href="#ArialMT-30" x="133.300781"/>
      <use xlink:href="#ArialMT-31" x="188.916016"/>
      <use xlink:href="#ArialMT-37" x="244.53125"/>
     </g>
    </g>
   </g>
  </g>
 </g>
 <defs>
  <clipPath id="p316f9f5f7d">
   <rect x="65.58175" y="83.313" width="558" height="332.64"/>
  </clipPath>
 </defs>
</svg>
